<svg xmlns="http://www.w3.org/2000/svg" xmlns:xlink="http://www.w3.org/1999/xlink" width="800" zoomAndPan="magnify" viewBox="0 0 600 599.999999" height="800" preserveAspectRatio="xMidYMid meet" version="1.0"><rect x="-60" width="720" fill="#ffffff" y="-60" height="719.999999" fill-opacity="1"/><rect x="-60" width="720" fill="#737373" y="-60" height="719.999999" fill-opacity="1"/><path fill="#ffffff" d="M 210 270 C 193.425781 270 180 283.425781 180 300 C 180 316.574219 193.425781 330 210 330 C 226.574219 330 240 316.574219 240 300 C 240 283.425781 226.574219 270 210 270 Z M 390 270 C 373.425781 270 360 283.425781 360 300 C 360 316.574219 373.425781 330 390 330 C 406.574219 330 420 316.574219 420 300 C 420 283.425781 406.574219 270 390 270 Z M 300 270 C 283.425781 270 270 283.425781 270 300 C 270 316.574219 283.425781 330 300 330 C 316.574219 330 330 316.574219 330 300 C 330 283.425781 316.574219 270 300 270 Z M 300 270 " fill-opacity="1" fill-rule="nonzero"/></svg>