<svg width="30" height="30" viewBox="0 0 30 30" fill="none" xmlns="http://www.w3.org/2000/svg">
<path d="M5 25H25C25.3315 25 25.6495 25.1317 25.8839 25.3661C26.1183 25.6005 26.25 25.9185 26.25 26.25C26.25 26.5815 26.1183 26.8995 25.8839 27.1339C25.6495 27.3683 25.3315 27.5 25 27.5H5C4.66848 27.5 4.35054 27.3683 4.11612 27.1339C3.8817 26.8995 3.75 26.5815 3.75 26.25C3.75 25.9185 3.8817 25.6005 4.11612 25.3661C4.35054 25.1317 4.66848 25 5 25ZM15 2.5C14.6685 2.5 14.3505 2.6317 14.1161 2.86612C13.8817 3.10054 13.75 3.41848 13.75 3.75V18.2325L10.8837 15.3663C10.7684 15.2469 10.6305 15.1516 10.478 15.0861C10.3255 15.0206 10.1615 14.9861 9.9955 14.9847C9.82953 14.9832 9.66493 15.0149 9.51131 15.0777C9.35769 15.1406 9.21812 15.2334 9.10076 15.3508C8.98339 15.4681 8.89057 15.6077 8.82772 15.7613C8.76487 15.9149 8.73324 16.0795 8.73469 16.2455C8.73613 16.4115 8.77061 16.5755 8.83612 16.728C8.90163 16.8805 8.99686 17.0184 9.11625 17.1337L14.1163 22.1338C14.2326 22.2496 14.3707 22.3413 14.5225 22.4038C14.6737 22.4673 14.836 22.5 15 22.5C15.164 22.5 15.3263 22.4673 15.4775 22.4038C15.6293 22.3413 15.7674 22.2496 15.8837 22.1338L20.8838 17.1337C21.1114 16.898 21.2374 16.5822 21.2346 16.2545C21.2317 15.9268 21.1003 15.6132 20.8685 15.3815C20.6368 15.1497 20.3232 15.0183 19.9955 15.0154C19.6678 15.0126 19.352 15.1386 19.1163 15.3663L16.25 18.2325V3.75C16.25 3.41848 16.1183 3.10054 15.8839 2.86612C15.6495 2.6317 15.3315 2.5 15 2.5Z" fill="white"/>
</svg>
