<svg width="19" height="17" viewBox="0 0 19 17" fill="none" xmlns="http://www.w3.org/2000/svg">
<path d="M17.0644 5.78563L9.93935 1.53563C9.80924 1.458 9.65636 1.41659 9.49998 1.41663C9.34387 1.41673 9.19128 1.45814 9.06139 1.53563L1.93639 5.78563C1.79508 5.86994 1.68781 5.99268 1.63044 6.13572C1.57308 6.27876 1.56865 6.43452 1.61781 6.57999C1.66698 6.72546 1.76713 6.85292 1.90347 6.94355C2.03982 7.03418 2.20512 7.08317 2.37498 7.08329H3.16664V14.875C3.16664 15.0628 3.25005 15.243 3.39852 15.3758C3.54698 15.5087 3.74835 15.5833 3.95831 15.5833H15.0416C15.2516 15.5833 15.453 15.5087 15.6014 15.3758C15.7499 15.243 15.8333 15.0628 15.8333 14.875V7.08329H16.625C16.795 7.08348 16.9605 7.0347 17.0971 6.94418C17.2337 6.85367 17.3341 6.72621 17.3835 6.58067C17.4329 6.43513 17.4286 6.27924 17.3712 6.13606C17.3139 5.99287 17.2066 5.87 17.0651 5.78563H17.0644ZM14.25 14.1666H4.74998V5.80829L9.49998 2.97496L14.25 5.80829V14.1666Z" fill="white"/>
</svg>
