<svg width="19" height="19" viewBox="0 0 19 19" fill="none" xmlns="http://www.w3.org/2000/svg">
<path d="M2.37504 8.70837H7.91671C8.12667 8.70837 8.32803 8.62497 8.4765 8.4765C8.62497 8.32803 8.70837 8.12667 8.70837 7.91671V2.37504C8.70837 2.16508 8.62497 1.96371 8.4765 1.81525C8.32803 1.66678 8.12667 1.58337 7.91671 1.58337H2.37504C2.16508 1.58337 1.96371 1.66678 1.81525 1.81525C1.66678 1.96371 1.58337 2.16508 1.58337 2.37504V7.91671C1.58337 8.12667 1.66678 8.32803 1.81525 8.4765C1.96371 8.62497 2.16508 8.70837 2.37504 8.70837ZM3.16671 3.16671H7.12504V7.12504H3.16671V3.16671ZM17.4167 2.37504C17.4167 2.16508 17.3333 1.96371 17.1848 1.81525C17.0364 1.66678 16.835 1.58337 16.625 1.58337H11.0834C10.8734 1.58337 10.672 1.66678 10.5236 1.81525C10.3751 1.96371 10.2917 2.16508 10.2917 2.37504V7.91671C10.2917 8.12667 10.3751 8.32803 10.5236 8.4765C10.672 8.62497 10.8734 8.70837 11.0834 8.70837H16.625C16.835 8.70837 17.0364 8.62497 17.1848 8.4765C17.3333 8.32803 17.4167 8.12667 17.4167 7.91671V2.37504ZM15.8334 7.12504H11.875V3.16671H15.8334V7.12504ZM1.58337 16.625C1.58337 16.835 1.66678 17.0364 1.81525 17.1848C1.96371 17.3333 2.16508 17.4167 2.37504 17.4167H7.91671C8.12667 17.4167 8.32803 17.3333 8.4765 17.1848C8.62497 17.0364 8.70837 16.835 8.70837 16.625V11.0834C8.70837 10.8734 8.62497 10.672 8.4765 10.5236C8.32803 10.3751 8.12667 10.2917 7.91671 10.2917H2.37504C2.16508 10.2917 1.96371 10.3751 1.81525 10.5236C1.66678 10.672 1.58337 10.8734 1.58337 11.0834V16.625ZM3.16671 11.875H7.12504V15.8334H3.16671V11.875ZM17.4167 16.625V11.0834C17.4167 10.8734 17.3333 10.672 17.1848 10.5236C17.0364 10.3751 16.835 10.2917 16.625 10.2917H11.0834C10.8734 10.2917 10.672 10.3751 10.5236 10.5236C10.3751 10.672 10.2917 10.8734 10.2917 11.0834V16.625C10.2917 16.835 10.3751 17.0364 10.5236 17.1848C10.672 17.3333 10.8734 17.4167 11.0834 17.4167H16.625C16.835 17.4167 17.0364 17.3333 17.1848 17.1848C17.3333 17.0364 17.4167 16.835 17.4167 16.625ZM15.8334 15.8334H11.875V11.875H15.8334V15.8334Z" fill="white"/>
</svg>
