<svg width="17" height="15" viewBox="0 0 17 15" fill="none" xmlns="http://www.w3.org/2000/svg">
<path d="M16.0644 4.78563L8.93935 0.535626C8.80924 0.458002 8.65636 0.416595 8.49998 0.416626C8.34387 0.416734 8.19128 0.458136 8.06139 0.535626L0.936393 4.78563C0.795076 4.86994 0.687811 4.99268 0.630444 5.13572C0.573077 5.27876 0.568649 5.43452 0.617814 5.57999C0.666979 5.72546 0.767129 5.85292 0.903473 5.94355C1.03982 6.03418 1.20512 6.08317 1.37498 6.08329H2.16664V13.875C2.16664 14.0628 2.25005 14.243 2.39852 14.3758C2.54698 14.5087 2.74835 14.5833 2.95831 14.5833H14.0416C14.2516 14.5833 14.453 14.5087 14.6014 14.3758C14.7499 14.243 14.8333 14.0628 14.8333 13.875V6.08329H15.625C15.795 6.08348 15.9605 6.0347 16.0971 5.94418C16.2337 5.85367 16.3341 5.72621 16.3835 5.58067C16.4329 5.43513 16.4286 5.27924 16.3712 5.13606C16.3139 4.99287 16.2066 4.87 16.0651 4.78563H16.0644ZM13.25 13.1666H3.74998V4.80829L8.49998 1.97496L13.25 4.80829V13.1666Z" fill="white"/>
</svg>
