<svg width="30" height="30" viewBox="0 0 30 30" fill="none" xmlns="http://www.w3.org/2000/svg">
<path d="M23.75 11.25C24.7389 11.25 25.7056 10.9568 26.5279 10.4074C27.3501 9.85794 27.991 9.07705 28.3694 8.16342C28.7478 7.24979 28.8469 6.24446 28.6539 5.27455C28.461 4.30465 27.9848 3.41373 27.2855 2.71447C26.5863 2.01521 25.6954 1.539 24.7255 1.34608C23.7555 1.15315 22.7502 1.25217 21.8366 1.6306C20.923 2.00904 20.1421 2.64991 19.5927 3.47215C19.0432 4.2944 18.75 5.2611 18.75 6.25C18.7567 6.72155 18.8312 7.18969 18.9712 7.64L10.0762 11.82C9.42126 11.0253 8.53683 10.4522 7.54385 10.179C6.55086 9.90592 5.49776 9.94608 4.52846 10.294C3.55916 10.642 2.72095 11.2808 2.12838 12.1231C1.53582 12.9654 1.2178 13.9701 1.2178 15C1.2178 16.0299 1.53582 17.0346 2.12838 17.8769C2.72095 18.7192 3.55916 19.358 4.52846 19.706C5.49776 20.0539 6.55086 20.0941 7.54385 19.821C8.53683 19.5478 9.42126 18.9747 10.0762 18.18L18.9712 22.36C18.8312 22.8103 18.7567 23.2785 18.75 23.75C18.7471 24.9087 19.1458 26.0326 19.8782 26.9306C20.6106 27.8285 21.6314 28.4449 22.7671 28.675C23.9027 28.9051 25.083 28.7347 26.1072 28.1927C27.1313 27.6506 27.936 26.7705 28.3844 25.7021C28.8328 24.6337 28.8972 23.4429 28.5667 22.3323C28.2361 21.2217 27.531 20.26 26.5712 19.6107C25.6115 18.9614 24.4565 18.6647 23.3027 18.771C22.1488 18.8773 21.0674 19.3801 20.2425 20.1938L11.1562 15.925C11.2813 15.3151 11.2813 14.6862 11.1562 14.0763L20.2425 9.80625C21.1758 10.7308 22.4363 11.2496 23.75 11.25ZM23.75 3.75C24.2445 3.75 24.7278 3.89662 25.1389 4.17133C25.55 4.44603 25.8705 4.83648 26.0597 5.29329C26.2489 5.75011 26.2984 6.25278 26.202 6.73773C26.1055 7.22268 25.8674 7.66814 25.5178 8.01777C25.1681 8.3674 24.7227 8.6055 24.2377 8.70197C23.7528 8.79843 23.2501 8.74892 22.7933 8.5597C22.3365 8.37048 21.946 8.05005 21.6713 7.63893C21.3966 7.2278 21.25 6.74446 21.25 6.25C21.25 5.58696 21.5134 4.95108 21.9822 4.48224C22.4511 4.01339 23.087 3.75 23.75 3.75ZM6.25 17.5C5.75555 17.5 5.2722 17.3534 4.86107 17.0787C4.44995 16.804 4.12952 16.4135 3.9403 15.9567C3.75108 15.4999 3.70157 14.9972 3.79804 14.5123C3.8945 14.0273 4.1326 13.5819 4.48223 13.2322C4.83186 12.8826 5.27732 12.6445 5.76227 12.548C6.24723 12.4516 6.74989 12.5011 7.20671 12.6903C7.66352 12.8795 8.05397 13.2 8.32867 13.6111C8.60338 14.0222 8.75 14.5055 8.75 15C8.75 15.663 8.48661 16.2989 8.01777 16.7678C7.54893 17.2366 6.91304 17.5 6.25 17.5ZM23.75 21.25C24.2445 21.25 24.7278 21.3966 25.1389 21.6713C25.55 21.946 25.8705 22.3365 26.0597 22.7933C26.2489 23.2501 26.2984 23.7528 26.202 24.2377C26.1055 24.7227 25.8674 25.1681 25.5178 25.5178C25.1681 25.8674 24.7227 26.1055 24.2377 26.202C23.7528 26.2984 23.2501 26.2489 22.7933 26.0597C22.3365 25.8705 21.946 25.5501 21.6713 25.1389C21.3966 24.7278 21.25 24.2445 21.25 23.75C21.25 23.087 21.5134 22.4511 21.9822 21.9822C22.4511 21.5134 23.087 21.25 23.75 21.25Z" fill="white"/>
</svg>
