<svg xmlns="http://www.w3.org/2000/svg" xmlns:xlink="http://www.w3.org/1999/xlink" width="800" zoomAndPan="magnify" viewBox="0 0 600 599.999999" height="800" preserveAspectRatio="xMidYMid meet" version="1.0"><defs><clipPath id="a1cb1ac3f0"><path d="M 270 190.949219 L 396 190.949219 L 396 207 L 270 207 Z M 270 190.949219 " clip-rule="nonzero"/></clipPath><clipPath id="90c08e206d"><path d="M 183 190.949219 L 418 190.949219 L 418 409 L 183 409 Z M 183 190.949219 " clip-rule="nonzero"/></clipPath></defs><rect x="-60" width="720" fill="#ffffff" y="-60" height="719.999999" fill-opacity="1"/><rect x="-60" width="720" fill="#737373" y="-60" height="719.999999" fill-opacity="1"/><g clip-path="url(#a1cb1ac3f0)"><path fill="#ffffff" d="M 270.558594 198.582031 C 270.558594 194.066406 274.21875 190.40625 278.734375 190.40625 L 387.785156 190.40625 C 392.300781 190.40625 395.964844 194.066406 395.964844 198.582031 C 395.964844 203.101562 392.300781 206.761719 387.785156 206.761719 L 278.734375 206.761719 C 274.21875 206.761719 270.558594 203.101562 270.558594 198.582031 Z M 270.558594 198.582031 " fill-opacity="1" fill-rule="evenodd"/></g><g clip-path="url(#90c08e206d)"><path fill="#ffffff" d="M 183.316406 220.394531 C 183.316406 203.832031 196.742188 190.40625 213.304688 190.40625 L 231.652344 190.40625 C 239.511719 190.40625 247.050781 193.488281 252.660156 198.992188 L 276.625 222.511719 L 387.785156 222.511719 C 405.136719 222.511719 417.773438 237.855469 417.773438 254.925781 L 417.773438 376.089844 C 417.773438 393.160156 405.136719 408.503906 387.785156 408.503906 L 213.304688 408.503906 C 195.953125 408.503906 183.316406 393.160156 183.316406 376.089844 Z M 292.367188 280.371094 C 292.367188 275.851562 296.027344 272.191406 300.546875 272.191406 L 333.261719 272.191406 C 337.777344 272.191406 341.4375 275.851562 341.4375 280.371094 C 341.4375 284.886719 337.777344 288.546875 333.261719 288.546875 L 308.722656 288.546875 L 308.722656 334.894531 C 308.722656 335.578125 308.640625 336.246094 308.480469 336.882812 C 308.640625 338.011719 308.722656 339.171875 308.722656 340.347656 C 308.722656 353.898438 297.738281 364.882812 284.1875 364.882812 C 270.636719 364.882812 259.652344 353.898438 259.652344 340.347656 C 259.652344 326.796875 270.636719 315.8125 284.1875 315.8125 C 287.054688 315.8125 289.808594 316.300781 292.367188 317.207031 Z M 284.1875 332.167969 C 279.671875 332.167969 276.007812 335.832031 276.007812 340.347656 C 276.007812 344.863281 279.671875 348.527344 284.1875 348.527344 C 288.703125 348.527344 292.367188 344.863281 292.367188 340.347656 C 292.367188 335.832031 288.703125 332.167969 284.1875 332.167969 Z M 284.1875 332.167969 " fill-opacity="1" fill-rule="evenodd"/></g></svg>