<svg xmlns="http://www.w3.org/2000/svg" xmlns:xlink="http://www.w3.org/1999/xlink" width="800" zoomAndPan="magnify" viewBox="0 0 600 599.999999" height="800" preserveAspectRatio="xMidYMid meet" version="1.0"><defs><clipPath id="0928e4590f"><path d="M 186 196.351562 L 414 196.351562 L 414 403.351562 L 186 403.351562 Z M 186 196.351562 " clip-rule="nonzero"/></clipPath></defs><rect x="-60" width="720" fill="#ffffff" y="-60" height="719.999999" fill-opacity="1"/><rect x="-60" width="720" fill="#737373" y="-60" height="719.999999" fill-opacity="1"/><g clip-path="url(#0928e4590f)"><path fill="#ffffff" d="M 353.425781 196.390625 C 327.253906 196.390625 308.351562 211.402344 299.984375 219.605469 C 291.617188 211.402344 272.746094 196.390625 246.574219 196.390625 C 224.230469 196.390625 204.546875 209.199219 193.945312 230.632812 C 180 258.8125 185.414062 294.742188 208.246094 324.640625 C 235.515625 356.972656 274.949219 388.429688 290.644531 400.457031 C 293.402344 402.566406 296.675781 403.605469 299.984375 403.605469 C 303.292969 403.605469 306.566406 402.566406 309.324219 400.457031 C 325.019531 388.429688 364.449219 356.972656 391.917969 324.414062 C 414.585938 294.742188 420 258.8125 406.054688 230.632812 C 395.453125 209.199219 375.769531 196.390625 353.425781 196.390625 Z M 382.414062 316.792969 C 355.921875 348.21875 317.300781 379.023438 301.929688 390.796875 C 300.792969 391.671875 299.207031 391.671875 298.070312 390.796875 C 282.699219 379.023438 244.078125 348.21875 217.777344 317.019531 C 194.074219 285.988281 195.566406 254.824219 204.871094 236.015625 C 213.402344 218.796875 228.964844 208.550781 246.574219 208.550781 C 275.824219 208.550781 295.054688 232.09375 295.25 232.320312 C 297.550781 235.238281 302.480469 235.238281 304.78125 232.320312 C 304.976562 232.09375 324.011719 208.550781 353.457031 208.550781 C 371.066406 208.550781 386.632812 218.828125 395.160156 236.015625 C 404.433594 254.855469 405.925781 286.019531 382.414062 316.792969 Z M 382.414062 316.792969 " fill-opacity="1" fill-rule="nonzero"/></g></svg>