<svg xmlns="http://www.w3.org/2000/svg" xmlns:xlink="http://www.w3.org/1999/xlink" width="800" zoomAndPan="magnify" viewBox="0 0 600 599.999999" height="800" preserveAspectRatio="xMidYMid meet" version="1.0"><defs><clipPath id="34a772996a"><path d="M 180 210.601562 L 420 210.601562 L 420 389.101562 L 180 389.101562 Z M 180 210.601562 " clip-rule="nonzero"/></clipPath></defs><rect x="-60" width="720" fill="#ffffff" y="-60" height="719.999999" fill-opacity="1"/><rect x="-60" width="720" fill="#737373" y="-60" height="719.999999" fill-opacity="1"/><g clip-path="url(#34a772996a)"><path fill="#ffffff" d="M 418.421875 221.503906 C 418.421875 221.503906 418.523438 221.386719 418.570312 221.320312 C 418.636719 221.238281 418.6875 221.152344 418.738281 221.070312 C 418.789062 220.988281 418.855469 220.921875 418.902344 220.839844 C 418.953125 220.773438 418.988281 220.707031 419.035156 220.621094 C 419.085938 220.523438 419.152344 220.441406 419.203125 220.339844 C 419.234375 220.273438 419.269531 220.207031 419.300781 220.140625 C 419.351562 220.039062 419.402344 219.941406 419.453125 219.824219 C 419.484375 219.757812 419.5 219.691406 419.535156 219.609375 C 419.566406 219.507812 419.617188 219.410156 419.652344 219.292969 C 419.683594 219.210938 419.699219 219.128906 419.71875 219.027344 C 419.75 218.929688 419.765625 218.84375 419.800781 218.746094 C 419.816406 218.644531 419.832031 218.546875 419.867188 218.429688 C 419.867188 218.347656 419.898438 218.28125 419.917969 218.195312 C 419.917969 218.082031 419.949219 217.980469 419.949219 217.863281 C 419.949219 217.78125 419.964844 217.714844 419.964844 217.632812 C 419.964844 217.53125 419.964844 217.433594 419.964844 217.316406 C 419.964844 217.234375 419.964844 217.152344 419.964844 217.050781 C 419.964844 216.96875 419.964844 216.867188 419.964844 216.785156 C 419.964844 216.6875 419.964844 216.585938 419.949219 216.488281 C 419.949219 216.402344 419.933594 216.335938 419.917969 216.253906 C 419.898438 216.136719 419.882812 216.019531 419.867188 215.90625 C 419.867188 215.886719 419.867188 215.871094 419.867188 215.855469 C 419.867188 215.804688 419.832031 215.753906 419.832031 215.707031 C 419.800781 215.589844 419.785156 215.472656 419.75 215.355469 C 419.734375 215.273438 419.699219 215.207031 419.683594 215.125 C 419.652344 215.023438 419.617188 214.925781 419.585938 214.808594 C 419.550781 214.726562 419.519531 214.644531 419.484375 214.558594 C 419.453125 214.476562 419.402344 214.378906 419.367188 214.292969 C 419.320312 214.195312 419.269531 214.113281 419.21875 214.027344 C 419.1875 213.945312 419.136719 213.878906 419.085938 213.8125 C 419.035156 213.710938 418.96875 213.628906 418.902344 213.53125 C 418.871094 213.480469 418.835938 213.429688 418.804688 213.378906 C 418.804688 213.378906 418.769531 213.347656 418.769531 213.332031 C 418.703125 213.246094 418.636719 213.148438 418.570312 213.066406 C 418.523438 213 418.472656 212.933594 418.421875 212.867188 C 418.355469 212.800781 418.289062 212.714844 418.222656 212.648438 C 418.15625 212.582031 418.089844 212.515625 418.023438 212.449219 C 417.957031 212.402344 417.90625 212.335938 417.839844 212.285156 C 417.757812 212.21875 417.691406 212.136719 417.609375 212.070312 C 417.558594 212.019531 417.492188 211.984375 417.425781 211.9375 C 417.34375 211.871094 417.242188 211.804688 417.160156 211.738281 C 417.09375 211.6875 417.027344 211.652344 416.960938 211.601562 C 416.878906 211.554688 416.777344 211.488281 416.695312 211.4375 C 416.613281 211.386719 416.527344 211.335938 416.429688 211.304688 C 416.347656 211.269531 416.28125 211.222656 416.195312 211.1875 C 416.097656 211.136719 415.980469 211.105469 415.882812 211.054688 C 415.816406 211.023438 415.75 211.003906 415.683594 210.972656 C 415.566406 210.9375 415.449219 210.890625 415.347656 210.855469 C 415.28125 210.839844 415.214844 210.804688 415.148438 210.789062 C 415.050781 210.757812 414.933594 210.738281 414.835938 210.707031 C 414.75 210.691406 414.683594 210.671875 414.601562 210.65625 C 414.503906 210.640625 414.417969 210.625 414.320312 210.605469 C 414.21875 210.605469 414.136719 210.574219 414.039062 210.574219 C 413.953125 210.574219 413.871094 210.574219 413.789062 210.574219 C 413.671875 210.574219 413.574219 210.574219 413.457031 210.574219 C 413.441406 210.574219 413.421875 210.574219 413.390625 210.574219 L 187.140625 210.574219 C 184.300781 210.640625 181.777344 212.433594 180.863281 215.109375 C 179.933594 217.78125 180.8125 220.753906 183.039062 222.5 L 260.96875 283.503906 L 252.449219 382.113281 C 252.199219 384.933594 253.777344 387.59375 256.367188 388.753906 C 257.230469 389.136719 258.144531 389.320312 259.058594 389.320312 C 260.871094 389.320312 262.628906 388.589844 263.910156 387.210938 L 418.15625 221.800781 C 418.15625 221.800781 418.171875 221.769531 418.191406 221.75 C 418.273438 221.667969 418.339844 221.585938 418.40625 221.484375 Z M 381.382812 223.910156 L 268.875 272.824219 L 206.390625 223.910156 Z M 267.332031 364.089844 L 274.15625 285.03125 L 386.683594 236.101562 Z M 267.332031 364.089844 " fill-opacity="1" fill-rule="nonzero"/></g></svg>