<svg xmlns="http://www.w3.org/2000/svg" xmlns:xlink="http://www.w3.org/1999/xlink" width="800" zoomAndPan="magnify" viewBox="0 0 600 599.999999" height="800" preserveAspectRatio="xMidYMid meet" version="1.0"><defs><clipPath id="07e0aeea6d"><path d="M 180 202.050781 L 420 202.050781 L 420 397.800781 L 180 397.800781 Z M 180 202.050781 " clip-rule="nonzero"/></clipPath></defs><rect x="-60" width="720" fill="#ffffff" y="-60" height="719.999999" fill-opacity="1"/><rect x="-60" width="720" fill="#737373" y="-60" height="719.999999" fill-opacity="1"/><g clip-path="url(#07e0aeea6d)"><path fill="#ffffff" d="M 235.957031 381.308594 C 254.203125 390.4375 277.019531 397.796875 299.996094 397.796875 C 366.273438 397.796875 419.996094 354.007812 419.996094 299.992188 C 419.996094 245.976562 366.273438 202.191406 299.996094 202.191406 C 233.722656 202.191406 179.996094 245.976562 179.996094 299.992188 C 179.996094 317.699219 191.949219 332.179688 202.046875 346.484375 L 202.042969 346.507812 L 189.335938 393.757812 Z M 249.589844 287.730469 C 256.363281 287.730469 261.855469 293.21875 261.855469 299.992188 C 261.855469 306.765625 256.363281 312.257812 249.589844 312.257812 C 242.816406 312.257812 237.328125 306.765625 237.328125 299.992188 C 237.328125 293.21875 242.816406 287.730469 249.589844 287.730469 Z M 299.996094 287.730469 C 306.769531 287.730469 312.261719 293.21875 312.261719 299.992188 C 312.261719 306.765625 306.769531 312.257812 299.996094 312.257812 C 293.222656 312.257812 287.734375 306.765625 287.734375 299.992188 C 287.734375 293.21875 293.222656 287.730469 299.996094 287.730469 Z M 350.40625 287.730469 C 357.179688 287.730469 362.667969 293.21875 362.667969 299.992188 C 362.667969 306.765625 357.179688 312.257812 350.40625 312.257812 C 343.632812 312.257812 338.140625 306.765625 338.140625 299.992188 C 338.140625 293.21875 343.632812 287.730469 350.40625 287.730469 Z M 350.40625 287.730469 " fill-opacity="1" fill-rule="evenodd"/></g></svg>