<svg xmlns="http://www.w3.org/2000/svg" xmlns:xlink="http://www.w3.org/1999/xlink" width="800" zoomAndPan="magnify" viewBox="0 0 600 599.999999" height="800" preserveAspectRatio="xMidYMid meet" version="1.0"><rect x="-60" width="720" fill="#ffffff" y="-60" height="719.999999" fill-opacity="1"/><rect x="-60" width="720" fill="#737373" y="-60" height="719.999999" fill-opacity="1"/><path fill="#ffffff" d="M 300 180 C 233.878906 180 180 233.878906 180 300 C 180 366.121094 233.878906 420 300 420 C 366.121094 420 420 366.121094 420 300 C 420 233.878906 366.121094 180 300 180 Z M 300 402.839844 C 243.238281 402.839844 197.160156 356.761719 197.160156 300 C 197.160156 243.238281 243.238281 197.160156 300 197.160156 C 356.761719 197.160156 402.839844 243.238281 402.839844 300 C 402.839844 356.761719 356.761719 402.839844 300 402.839844 Z M 300 402.839844 " fill-opacity="1" fill-rule="nonzero"/><path fill="#ffffff" d="M 269.519531 315.71875 C 265.558594 313.078125 264.480469 307.800781 267.121094 303.839844 C 269.761719 299.878906 275.039062 298.800781 279 301.441406 L 291.359375 309.71875 L 291.359375 248.519531 C 291.359375 243.839844 295.199219 240 299.878906 240 C 304.558594 240 308.398438 243.839844 308.398438 248.519531 L 308.398438 309.601562 L 320.761719 301.320312 C 324.71875 298.679688 330 299.761719 332.640625 303.71875 C 335.28125 307.679688 334.199219 312.960938 330.238281 315.601562 L 304.800781 332.878906 C 304.679688 333 304.558594 333 304.441406 333 C 304.320312 333.121094 304.199219 333.238281 304.078125 333.238281 C 303.71875 333.480469 303.359375 333.480469 303 333.71875 C 302.761719 333.839844 302.519531 333.960938 302.28125 333.960938 C 301.558594 334.199219 300.839844 334.320312 300.121094 334.320312 C 299.398438 334.320312 298.558594 334.199219 297.839844 333.960938 C 297.601562 333.839844 297.359375 333.839844 297.121094 333.71875 C 296.640625 333.480469 296.160156 333.359375 295.679688 333 C 295.558594 332.878906 295.441406 332.878906 295.320312 332.878906 Z M 269.519531 315.71875 " fill-opacity="1" fill-rule="nonzero"/><path fill="#ffffff" d="M 351.480469 351.480469 C 351.480469 356.160156 347.640625 360 342.960938 360 L 257.160156 360 C 252.480469 360 248.640625 356.160156 248.640625 351.480469 C 248.640625 346.800781 252.480469 342.960938 257.160156 342.960938 L 342.839844 342.960938 C 347.640625 342.839844 351.480469 346.679688 351.480469 351.480469 Z M 351.480469 351.480469 " fill-opacity="1" fill-rule="nonzero"/></svg>