<svg width="30" height="30" viewBox="0 0 30 30" fill="none" xmlns="http://www.w3.org/2000/svg">
<path d="M25.625 5.76125C24.9407 4.93324 24.0812 4.26733 23.1085 3.81147C22.1359 3.35561 21.0742 3.12115 20 3.125C18.162 3.06935 16.3727 3.72024 15 4.94375C13.6273 3.72024 11.8379 3.06935 9.99999 3.125C8.9258 3.12115 7.86413 3.35561 6.89146 3.81147C5.91878 4.26733 5.05932 4.93324 4.37499 5.76125C3.18374 7.20625 1.93749 9.8225 2.76374 14.0863C4.08249 20.895 13.9712 26.4825 14.3887 26.7112C14.5749 26.815 14.7844 26.8695 14.9975 26.8695C15.2106 26.8695 15.4201 26.815 15.6062 26.7112C16.0262 26.4775 25.915 20.89 27.2312 14.0863C28.0625 9.8225 26.8162 7.20625 25.625 5.76125ZM24.7825 13.6112C23.85 18.425 17.0725 22.9025 15 24.175C12.08 22.4125 6.07249 17.9875 5.22374 13.6112C4.58249 10.3038 5.45999 8.3825 6.30999 7.3525C6.7595 6.81014 7.32347 6.37398 7.96144 6.07531C8.59941 5.77664 9.29557 5.62286 9.99999 5.625C10.7524 5.56857 11.5065 5.70807 12.1889 6.02988C12.8713 6.3517 13.4587 6.84484 13.8937 7.46125C14.001 7.65867 14.1593 7.8237 14.3521 7.93915C14.5448 8.05459 14.765 8.11623 14.9897 8.11764C15.2144 8.11904 15.4353 8.06016 15.6295 7.94713C15.8237 7.8341 15.984 7.67106 16.0937 7.475C16.528 6.85379 17.1166 6.35647 17.8016 6.03206C18.4866 5.70765 19.2443 5.56736 20 5.625C20.7059 5.62156 21.4038 5.77472 22.0433 6.07344C22.6829 6.37215 23.2483 6.809 23.6987 7.3525C24.5462 8.3825 25.4237 10.3038 24.7825 13.6112Z" fill="white"/>
</svg>
