<svg width="40" height="32" viewBox="0 0 40 32" fill="none" xmlns="http://www.w3.org/2000/svg">
<path d="M12.1189 13.792C11.8202 13.792 11.6015 13.7867 11.4629 13.776C11.0362 15.7173 10.8229 17.0187 10.8229 17.68C10.2255 17.9573 9.44154 18.096 8.47088 18.096C8.20421 18.096 7.94821 18.08 7.70288 18.048C7.70288 17.376 7.99621 15.8187 8.58288 13.376C9.16954 10.9227 9.46288 9.40267 9.46288 8.816C9.46288 8.63467 9.39888 8.42667 9.27088 8.192C9.15354 7.95733 9.03088 7.77067 8.90288 7.632L8.72688 7.408L8.79088 7.024C9.19621 6.94933 9.87888 6.86933 10.8389 6.784C11.8095 6.688 12.7002 6.64 13.5109 6.64C14.7055 6.64 15.5909 6.88533 16.1669 7.376C16.7429 7.86667 17.0309 8.528 17.0309 9.36C17.0309 10.6507 16.6149 11.712 15.7829 12.544C14.9615 13.376 13.7402 13.792 12.1189 13.792ZM12.0869 12.416C12.6842 12.416 13.1429 12.0747 13.4629 11.392C13.7935 10.7093 13.9589 9.888 13.9589 8.928C13.9589 8.14933 13.7029 7.76 13.1909 7.76L12.6789 7.824C12.6789 8.24 12.3802 9.77067 11.7829 12.416H12.0869ZM24.663 11.52C24.439 12.2133 24.247 13.04 24.087 14C23.927 14.9493 23.847 15.616 23.847 16C23.847 16.3733 23.9057 16.56 24.023 16.56L24.823 16.336L25.111 17.136C24.7697 17.4027 24.3323 17.648 23.799 17.872C23.2763 18.0853 22.8123 18.192 22.407 18.192C21.7137 18.192 21.2763 17.8933 21.095 17.296C20.2523 17.8933 19.5057 18.192 18.855 18.192C18.215 18.192 17.719 17.9573 17.367 17.488C17.015 17.0187 16.839 16.3467 16.839 15.472C16.839 14.2667 17.1483 13.2053 17.767 12.288C18.3857 11.3707 19.2017 10.912 20.215 10.912C20.7697 10.912 21.335 11.0667 21.911 11.376C21.9963 11.184 22.0657 11.0453 22.119 10.96C22.887 10.96 23.735 11.1467 24.663 11.52ZM19.847 15.28C19.847 15.8133 19.8843 16.1493 19.959 16.288C20.0337 16.4267 20.1723 16.496 20.375 16.496C20.5777 16.496 20.775 16.416 20.967 16.256C21.0097 15.0187 21.2123 13.7227 21.575 12.368C21.415 12.272 21.2283 12.224 21.015 12.224C20.8123 12.224 20.6257 12.3413 20.455 12.576C20.295 12.8107 20.1723 13.104 20.087 13.456C19.927 14.128 19.847 14.736 19.847 15.28ZM32.859 11.024H32.987C32.9337 11.3013 32.843 11.8987 32.715 12.816C32.427 14.9067 32.1177 16.4853 31.787 17.552C30.9657 20.24 29.6483 21.584 27.835 21.584C27.291 21.584 26.8483 21.4667 26.507 21.232C26.1763 21.008 26.011 20.7093 26.011 20.336C26.011 19.9733 26.0963 19.6693 26.267 19.424C26.4483 19.1893 26.7043 18.992 27.035 18.832C27.6003 18.5547 28.2937 18.3253 29.115 18.144C29.2003 17.7387 29.2537 17.4773 29.275 17.36C28.443 17.808 27.6537 18.032 26.907 18.032C25.883 18.032 25.371 17.5307 25.371 16.528C25.371 16.176 25.4883 15.488 25.723 14.464C25.9577 13.4293 26.075 12.7147 26.075 12.32C26.075 11.9253 26.0483 11.632 25.995 11.44C27.2537 11.1733 28.2297 11.04 28.923 11.04C29.0083 11.168 29.051 11.424 29.051 11.808C29.051 12.1813 28.9283 12.912 28.683 14C28.4483 15.088 28.331 15.728 28.331 15.92C28.331 16.2507 28.491 16.416 28.811 16.416C28.9923 16.416 29.2003 16.368 29.435 16.272C29.5203 15.728 29.6377 14.9013 29.787 13.792C29.947 12.672 30.059 11.904 30.123 11.488C30.4003 11.36 30.8163 11.2533 31.371 11.168C31.9363 11.072 32.4323 11.024 32.859 11.024ZM27.147 20.032C27.147 20.2773 27.307 20.4 27.627 20.4C27.787 20.4 27.995 20.288 28.251 20.064C28.5177 19.8507 28.731 19.5307 28.891 19.104C27.7283 19.3067 27.147 19.616 27.147 20.032Z" fill="white"/>
<path d="M35.0856 23.7138C18.0718 32.9199 7.51287 25.2174 0.753748 20.5391C0.335497 20.2443 -0.375385 20.608 0.241403 21.4135C2.4932 24.5178 9.87283 32.0001 19.5054 32.0001C29.1446 32.0001 34.879 26.0202 35.5963 24.977C36.3088 23.9427 35.8055 23.3721 35.0854 23.7138H35.0856ZM39.8639 20.7135C39.407 20.0371 37.0857 19.911 35.6248 20.115C34.1616 20.3132 31.9655 21.3299 32.1564 21.9403C32.2544 22.169 32.4544 22.0664 33.4595 21.9637C34.4674 21.8494 37.2908 21.4442 37.8792 22.3186C38.4703 23.1991 36.9787 27.3935 36.7062 28.0699C36.443 28.7464 36.8068 28.9208 37.3012 28.4703C37.7888 28.0199 38.6715 26.8536 39.2639 25.2031C39.8523 23.5436 40.211 21.2286 39.8637 20.7135H39.8639Z" fill="white"/>
<path d="M35.0856 23.7138C18.0718 32.9199 7.51287 25.2174 0.753748 20.5391C0.335497 20.2443 -0.375385 20.608 0.241403 21.4135C2.4932 24.5178 9.87283 32.0001 19.5054 32.0001C29.1446 32.0001 34.879 26.0202 35.5963 24.977C36.3088 23.9427 35.8055 23.3721 35.0854 23.7138H35.0856ZM39.8639 20.7135C39.407 20.0371 37.0857 19.911 35.6248 20.115C34.1616 20.3132 31.9655 21.3299 32.1564 21.9403C32.2544 22.169 32.4544 22.0664 33.4595 21.9637C34.4674 21.8494 37.2908 21.4442 37.8792 22.3186C38.4703 23.1991 36.9787 27.3935 36.7062 28.0699C36.443 28.7464 36.8068 28.9208 37.3012 28.4703C37.7888 28.0199 38.6715 26.8536 39.2639 25.2031C39.8523 23.5436 40.211 21.2286 39.8637 20.7135H39.8639Z" fill="white"/>
</svg>
